# xmcd
#
# Track frame offsets: 
#        200
#        12907
#        31630
#        45345
#        56305
#        72025
#        83642
#        97352
#        117247
#        128370
#        144350
#        156132
#        167892
#
# Disc length: 2402 seconds
#
# Revision: 3
# Processed by: cddbd v1.5.2PL0 Copyright (c) Steve Scherf et al.
# Submitted via: ExactAudioCopy v1.0b3
#
DISCID=9709600d
DTITLE=Country Gentlemen - Classic Country Gents Reunion
DYEAR=1989
DGENRE=Bluegrass
TTITLE0=Fare Thee Well
TTITLE1=Stewball
TTITLE2=I'll Be Here in the Morning
TTITLE3=Champagne Breakdown
TTITLE4=Here Today and Gone Tomorrow
TTITLE5=Gonna Get There Soon
TTITLE6=Hey La La
TTITLE7=Casey's Last Ride
TTITLE8=Wild Side of Life
TTITLE9=Wait a Little Longer
TTITLE10=Back Home In Indiana
TTITLE11=Thinking of You
TTITLE12=Say Won't You Be Mine
EXTD=
EXTT0=
EXTT1=
EXTT2=
EXTT3=
EXTT4=
EXTT5=
EXTT6=
EXTT7=
EXTT8=
EXTT9=
EXTT10=
EXTT11=
EXTT12=
PLAYORDER=
